<mxfile host="app.diagrams.net" agent="Mozilla/5.0 (Windows NT 10.0; Win64; x64) AppleWebKit/537.36 (KHTML, like Gecko) Chrome/127.0.0.0 Safari/537.36" version="24.7.7" pages="2">
  <diagram name="페이지-1" id="wTochhnxIILY2iRwMg7a">
    <mxGraphModel dx="1793" dy="923" grid="1" gridSize="10" guides="1" tooltips="1" connect="1" arrows="1" fold="1" page="1" pageScale="1" pageWidth="827" pageHeight="1169" math="0" shadow="0">
      <root>
        <mxCell id="0" />
        <mxCell id="1" parent="0" />
        <mxCell id="loEYAozobmO81l_YVehv-4" value="&lt;span style=&quot;font-size: 16px;&quot;&gt;&lt;b&gt;loanCalculator&lt;/b&gt;&lt;/span&gt;" style="rounded=0;whiteSpace=wrap;html=1;" vertex="1" parent="1">
          <mxGeometry x="1000" y="300" width="170" height="60" as="geometry" />
        </mxCell>
        <mxCell id="loEYAozobmO81l_YVehv-9" value="&lt;span style=&quot;font-size: 16px;&quot;&gt;&lt;b&gt;bullet.c&lt;/b&gt;&lt;/span&gt;" style="rounded=0;whiteSpace=wrap;html=1;" vertex="1" parent="1">
          <mxGeometry x="60" y="280" width="170" height="60" as="geometry" />
        </mxCell>
        <mxCell id="loEYAozobmO81l_YVehv-10" value="&lt;span style=&quot;font-size: 16px;&quot;&gt;&lt;b&gt;equalPrincipal_Interest.c&lt;/b&gt;&lt;/span&gt;" style="rounded=0;whiteSpace=wrap;html=1;" vertex="1" parent="1">
          <mxGeometry x="20" y="50" width="210" height="60" as="geometry" />
        </mxCell>
        <mxCell id="loEYAozobmO81l_YVehv-11" value="&lt;span style=&quot;font-size: 16px;&quot;&gt;&lt;b&gt;ballon.c&lt;/b&gt;&lt;/span&gt;" style="rounded=0;whiteSpace=wrap;html=1;" vertex="1" parent="1">
          <mxGeometry x="60" y="560" width="170" height="60" as="geometry" />
        </mxCell>
        <mxCell id="loEYAozobmO81l_YVehv-12" value="&lt;span style=&quot;font-size: 16px;&quot;&gt;&lt;b&gt;graduated.c&lt;/b&gt;&lt;/span&gt;" style="rounded=0;whiteSpace=wrap;html=1;" vertex="1" parent="1">
          <mxGeometry x="60" y="430" width="170" height="60" as="geometry" />
        </mxCell>
        <mxCell id="loEYAozobmO81l_YVehv-13" value="&lt;span style=&quot;font-size: 16px;&quot;&gt;&lt;b&gt;equalPrincipal.c&lt;/b&gt;&lt;/span&gt;" style="rounded=0;whiteSpace=wrap;html=1;" vertex="1" parent="1">
          <mxGeometry x="60" y="160" width="170" height="60" as="geometry" />
        </mxCell>
        <mxCell id="loEYAozobmO81l_YVehv-14" value="&lt;span style=&quot;font-size: 16px;&quot;&gt;&lt;b&gt;bullet&lt;/b&gt;&lt;/span&gt;&lt;b style=&quot;font-size: 16px;&quot;&gt;.o&lt;/b&gt;" style="rounded=0;whiteSpace=wrap;html=1;" vertex="1" parent="1">
          <mxGeometry x="530" y="280" width="170" height="60" as="geometry" />
        </mxCell>
        <mxCell id="loEYAozobmO81l_YVehv-15" value="&lt;b style=&quot;font-size: 16px;&quot;&gt;equalPrincipal_Interest&lt;/b&gt;&lt;span style=&quot;font-size: 16px;&quot;&gt;&lt;b&gt;.o&lt;/b&gt;&lt;/span&gt;" style="rounded=0;whiteSpace=wrap;html=1;" vertex="1" parent="1">
          <mxGeometry x="380" y="50" width="220" height="60" as="geometry" />
        </mxCell>
        <mxCell id="loEYAozobmO81l_YVehv-16" value="&lt;span style=&quot;font-size: 16px;&quot;&gt;&lt;b&gt;ballon&lt;/b&gt;&lt;/span&gt;&lt;b style=&quot;font-size: 16px;&quot;&gt;.o&lt;/b&gt;" style="rounded=0;whiteSpace=wrap;html=1;" vertex="1" parent="1">
          <mxGeometry x="620" y="560" width="170" height="60" as="geometry" />
        </mxCell>
        <mxCell id="loEYAozobmO81l_YVehv-17" value="&lt;span style=&quot;font-size: 16px;&quot;&gt;&lt;b&gt;graduated&lt;/b&gt;&lt;/span&gt;&lt;b style=&quot;font-size: 16px;&quot;&gt;.o&lt;/b&gt;" style="rounded=0;whiteSpace=wrap;html=1;" vertex="1" parent="1">
          <mxGeometry x="570" y="430" width="170" height="60" as="geometry" />
        </mxCell>
        <mxCell id="loEYAozobmO81l_YVehv-18" value="&lt;b style=&quot;font-size: 16px;&quot;&gt;equalPrincipal&lt;/b&gt;&lt;b style=&quot;font-size: 16px;&quot;&gt;.o&lt;/b&gt;" style="rounded=0;whiteSpace=wrap;html=1;" vertex="1" parent="1">
          <mxGeometry x="460" y="160" width="170" height="60" as="geometry" />
        </mxCell>
        <mxCell id="loEYAozobmO81l_YVehv-19" value="" style="endArrow=classic;html=1;rounded=0;exitX=0;exitY=0.5;exitDx=0;exitDy=0;entryX=1;entryY=0.5;entryDx=0;entryDy=0;" edge="1" parent="1" source="loEYAozobmO81l_YVehv-15" target="loEYAozobmO81l_YVehv-10">
          <mxGeometry width="50" height="50" relative="1" as="geometry">
            <mxPoint x="400" y="300" as="sourcePoint" />
            <mxPoint x="450" y="250" as="targetPoint" />
          </mxGeometry>
        </mxCell>
        <mxCell id="loEYAozobmO81l_YVehv-20" value="" style="endArrow=classic;html=1;rounded=0;exitX=0;exitY=0.5;exitDx=0;exitDy=0;entryX=1;entryY=0.5;entryDx=0;entryDy=0;" edge="1" parent="1" source="loEYAozobmO81l_YVehv-16" target="loEYAozobmO81l_YVehv-11">
          <mxGeometry width="50" height="50" relative="1" as="geometry">
            <mxPoint x="300" y="659.5" as="sourcePoint" />
            <mxPoint x="230" y="659.5" as="targetPoint" />
          </mxGeometry>
        </mxCell>
        <mxCell id="loEYAozobmO81l_YVehv-21" value="" style="endArrow=classic;html=1;rounded=0;exitX=0;exitY=0.5;exitDx=0;exitDy=0;entryX=1;entryY=0.5;entryDx=0;entryDy=0;" edge="1" parent="1" source="loEYAozobmO81l_YVehv-17" target="loEYAozobmO81l_YVehv-12">
          <mxGeometry width="50" height="50" relative="1" as="geometry">
            <mxPoint x="300" y="499.5" as="sourcePoint" />
            <mxPoint x="230" y="499.5" as="targetPoint" />
          </mxGeometry>
        </mxCell>
        <mxCell id="loEYAozobmO81l_YVehv-22" value="" style="endArrow=classic;html=1;rounded=0;exitX=0;exitY=0.5;exitDx=0;exitDy=0;entryX=1;entryY=0.5;entryDx=0;entryDy=0;" edge="1" parent="1" source="loEYAozobmO81l_YVehv-14" target="loEYAozobmO81l_YVehv-9">
          <mxGeometry width="50" height="50" relative="1" as="geometry">
            <mxPoint x="300" y="329.5" as="sourcePoint" />
            <mxPoint x="230" y="329.5" as="targetPoint" />
          </mxGeometry>
        </mxCell>
        <mxCell id="loEYAozobmO81l_YVehv-23" value="" style="endArrow=classic;html=1;rounded=0;exitX=0;exitY=0.5;exitDx=0;exitDy=0;entryX=1;entryY=0.5;entryDx=0;entryDy=0;" edge="1" parent="1" source="loEYAozobmO81l_YVehv-18" target="loEYAozobmO81l_YVehv-13">
          <mxGeometry width="50" height="50" relative="1" as="geometry">
            <mxPoint x="300" y="189.5" as="sourcePoint" />
            <mxPoint x="230" y="189.5" as="targetPoint" />
          </mxGeometry>
        </mxCell>
        <mxCell id="loEYAozobmO81l_YVehv-24" value="" style="endArrow=classic;html=1;rounded=0;entryX=1;entryY=0.5;entryDx=0;entryDy=0;exitX=0;exitY=0.5;exitDx=0;exitDy=0;" edge="1" parent="1" source="loEYAozobmO81l_YVehv-4" target="loEYAozobmO81l_YVehv-15">
          <mxGeometry width="50" height="50" relative="1" as="geometry">
            <mxPoint x="630" y="260" as="sourcePoint" />
            <mxPoint x="510" y="340" as="targetPoint" />
          </mxGeometry>
        </mxCell>
        <mxCell id="loEYAozobmO81l_YVehv-25" value="" style="endArrow=classic;html=1;rounded=0;entryX=1;entryY=0.5;entryDx=0;entryDy=0;exitX=0;exitY=0.5;exitDx=0;exitDy=0;" edge="1" parent="1" source="loEYAozobmO81l_YVehv-4" target="loEYAozobmO81l_YVehv-16">
          <mxGeometry width="50" height="50" relative="1" as="geometry">
            <mxPoint x="600" y="410" as="sourcePoint" />
            <mxPoint x="520" y="400" as="targetPoint" />
          </mxGeometry>
        </mxCell>
        <mxCell id="loEYAozobmO81l_YVehv-26" value="" style="endArrow=classic;html=1;rounded=0;entryX=1;entryY=0.5;entryDx=0;entryDy=0;exitX=0;exitY=0.5;exitDx=0;exitDy=0;" edge="1" parent="1" source="loEYAozobmO81l_YVehv-4" target="loEYAozobmO81l_YVehv-18">
          <mxGeometry width="50" height="50" relative="1" as="geometry">
            <mxPoint x="580" y="340" as="sourcePoint" />
            <mxPoint x="590" y="120" as="targetPoint" />
          </mxGeometry>
        </mxCell>
        <mxCell id="loEYAozobmO81l_YVehv-28" value="" style="endArrow=classic;html=1;rounded=0;entryX=1;entryY=0.5;entryDx=0;entryDy=0;exitX=0;exitY=0.5;exitDx=0;exitDy=0;" edge="1" parent="1" source="loEYAozobmO81l_YVehv-4" target="loEYAozobmO81l_YVehv-14">
          <mxGeometry width="50" height="50" relative="1" as="geometry">
            <mxPoint x="640" y="330" as="sourcePoint" />
            <mxPoint x="450" y="360" as="targetPoint" />
          </mxGeometry>
        </mxCell>
        <mxCell id="loEYAozobmO81l_YVehv-30" value="" style="endArrow=classic;html=1;rounded=0;entryX=1;entryY=0.5;entryDx=0;entryDy=0;exitX=0;exitY=0.5;exitDx=0;exitDy=0;" edge="1" parent="1" source="loEYAozobmO81l_YVehv-4" target="loEYAozobmO81l_YVehv-17">
          <mxGeometry width="50" height="50" relative="1" as="geometry">
            <mxPoint x="590" y="390" as="sourcePoint" />
            <mxPoint x="470" y="430" as="targetPoint" />
          </mxGeometry>
        </mxCell>
        <mxCell id="loEYAozobmO81l_YVehv-34" value="&lt;span style=&quot;font-size: 16px;&quot;&gt;&lt;b&gt;repayment.h&lt;/b&gt;&lt;/span&gt;" style="rounded=0;whiteSpace=wrap;html=1;" vertex="1" parent="1">
          <mxGeometry x="260" y="790" width="170" height="60" as="geometry" />
        </mxCell>
        <mxCell id="loEYAozobmO81l_YVehv-36" value="" style="endArrow=classic;html=1;rounded=0;exitX=0;exitY=0.419;exitDx=0;exitDy=0;exitPerimeter=0;entryX=0.5;entryY=0;entryDx=0;entryDy=0;" edge="1" parent="1" source="loEYAozobmO81l_YVehv-15" target="loEYAozobmO81l_YVehv-34">
          <mxGeometry width="50" height="50" relative="1" as="geometry">
            <mxPoint x="480" y="20" as="sourcePoint" />
            <mxPoint x="430" y="440" as="targetPoint" />
          </mxGeometry>
        </mxCell>
        <mxCell id="loEYAozobmO81l_YVehv-37" value="" style="endArrow=classic;html=1;rounded=0;exitX=0;exitY=0.5;exitDx=0;exitDy=0;entryX=0.5;entryY=0;entryDx=0;entryDy=0;" edge="1" parent="1" source="loEYAozobmO81l_YVehv-18" target="loEYAozobmO81l_YVehv-34">
          <mxGeometry width="50" height="50" relative="1" as="geometry">
            <mxPoint x="465" y="187" as="sourcePoint" />
            <mxPoint x="330" y="982" as="targetPoint" />
          </mxGeometry>
        </mxCell>
        <mxCell id="loEYAozobmO81l_YVehv-38" value="" style="endArrow=classic;html=1;rounded=0;exitX=0;exitY=0.5;exitDx=0;exitDy=0;entryX=0.5;entryY=0;entryDx=0;entryDy=0;" edge="1" parent="1" source="loEYAozobmO81l_YVehv-16" target="loEYAozobmO81l_YVehv-34">
          <mxGeometry width="50" height="50" relative="1" as="geometry">
            <mxPoint x="1485" y="100" as="sourcePoint" />
            <mxPoint x="1350" y="895" as="targetPoint" />
          </mxGeometry>
        </mxCell>
        <mxCell id="loEYAozobmO81l_YVehv-39" value="" style="endArrow=classic;html=1;rounded=0;exitX=0;exitY=0.5;exitDx=0;exitDy=0;entryX=0.5;entryY=0;entryDx=0;entryDy=0;" edge="1" parent="1" source="loEYAozobmO81l_YVehv-17" target="loEYAozobmO81l_YVehv-34">
          <mxGeometry width="50" height="50" relative="1" as="geometry">
            <mxPoint x="1305" y="187" as="sourcePoint" />
            <mxPoint x="1170" y="982" as="targetPoint" />
          </mxGeometry>
        </mxCell>
        <mxCell id="loEYAozobmO81l_YVehv-40" value="" style="endArrow=classic;html=1;rounded=0;exitX=0;exitY=0.5;exitDx=0;exitDy=0;entryX=0.5;entryY=0;entryDx=0;entryDy=0;" edge="1" parent="1" source="loEYAozobmO81l_YVehv-14" target="loEYAozobmO81l_YVehv-34">
          <mxGeometry width="50" height="50" relative="1" as="geometry">
            <mxPoint x="1325" as="sourcePoint" />
            <mxPoint x="1190" y="795" as="targetPoint" />
          </mxGeometry>
        </mxCell>
        <mxCell id="loEYAozobmO81l_YVehv-64" value="" style="rounded=1;whiteSpace=wrap;html=1;" vertex="1" parent="1">
          <mxGeometry x="180" y="990" width="340" height="120" as="geometry" />
        </mxCell>
        <mxCell id="loEYAozobmO81l_YVehv-65" value="&lt;span style=&quot;font-size: 16px;&quot;&gt;&lt;b&gt;equalPrincipal_Interest.c&lt;/b&gt;&lt;/span&gt;" style="rounded=0;whiteSpace=wrap;html=1;" vertex="1" parent="1">
          <mxGeometry x="240" y="970" width="210" height="60" as="geometry" />
        </mxCell>
        <mxCell id="loEYAozobmO81l_YVehv-66" value="" style="rounded=1;whiteSpace=wrap;html=1;" vertex="1" parent="1">
          <mxGeometry x="550" y="990" width="340" height="120" as="geometry" />
        </mxCell>
        <mxCell id="loEYAozobmO81l_YVehv-67" value="&lt;span style=&quot;font-size: 16px;&quot;&gt;&lt;b&gt;equalPrincipal_Interest.c&lt;/b&gt;&lt;/span&gt;" style="rounded=0;whiteSpace=wrap;html=1;" vertex="1" parent="1">
          <mxGeometry x="610" y="970" width="210" height="60" as="geometry" />
        </mxCell>
        <mxCell id="loEYAozobmO81l_YVehv-68" value="" style="rounded=1;whiteSpace=wrap;html=1;" vertex="1" parent="1">
          <mxGeometry x="930" y="990" width="340" height="120" as="geometry" />
        </mxCell>
        <mxCell id="loEYAozobmO81l_YVehv-69" value="&lt;span style=&quot;font-size: 16px;&quot;&gt;&lt;b&gt;equalPrincipal_Interest.c&lt;/b&gt;&lt;/span&gt;" style="rounded=0;whiteSpace=wrap;html=1;" vertex="1" parent="1">
          <mxGeometry x="990" y="970" width="210" height="60" as="geometry" />
        </mxCell>
        <mxCell id="loEYAozobmO81l_YVehv-70" value="" style="rounded=1;whiteSpace=wrap;html=1;" vertex="1" parent="1">
          <mxGeometry x="1300" y="990" width="340" height="120" as="geometry" />
        </mxCell>
        <mxCell id="loEYAozobmO81l_YVehv-71" value="&lt;span style=&quot;font-size: 16px;&quot;&gt;&lt;b&gt;equalPrincipal_Interest.c&lt;/b&gt;&lt;/span&gt;" style="rounded=0;whiteSpace=wrap;html=1;" vertex="1" parent="1">
          <mxGeometry x="1360" y="970" width="210" height="60" as="geometry" />
        </mxCell>
        <mxCell id="loEYAozobmO81l_YVehv-72" value="" style="rounded=1;whiteSpace=wrap;html=1;" vertex="1" parent="1">
          <mxGeometry x="1680" y="990" width="340" height="120" as="geometry" />
        </mxCell>
        <mxCell id="loEYAozobmO81l_YVehv-73" value="&lt;span style=&quot;font-size: 16px;&quot;&gt;&lt;b&gt;equalPrincipal_Interest.c&lt;/b&gt;&lt;/span&gt;" style="rounded=0;whiteSpace=wrap;html=1;" vertex="1" parent="1">
          <mxGeometry x="1740" y="970" width="210" height="60" as="geometry" />
        </mxCell>
      </root>
    </mxGraphModel>
  </diagram>
  <diagram id="-4dnKElWVCw0-fuEW_sG" name="페이지-2">
    <mxGraphModel dx="1434" dy="738" grid="1" gridSize="10" guides="1" tooltips="1" connect="1" arrows="1" fold="1" page="1" pageScale="1" pageWidth="827" pageHeight="1169" math="0" shadow="0">
      <root>
        <mxCell id="0" />
        <mxCell id="1" parent="0" />
        <mxCell id="thi96tqDHeyaFZD7oe9c-2" value="&lt;b&gt;&amp;lt;p_interface&amp;gt;&lt;/b&gt;&lt;div&gt;&lt;b&gt;library_p.h&lt;/b&gt;&lt;/div&gt;" style="swimlane;fontStyle=0;childLayout=stackLayout;horizontal=1;startSize=40;fillColor=none;horizontalStack=0;resizeParent=1;resizeParentMax=0;resizeLast=0;collapsible=1;marginBottom=0;whiteSpace=wrap;html=1;" vertex="1" parent="1">
          <mxGeometry x="20" y="40" width="170" height="190" as="geometry">
            <mxRectangle x="20" y="160" width="110" height="40" as="alternateBounds" />
          </mxGeometry>
        </mxCell>
        <mxCell id="thi96tqDHeyaFZD7oe9c-3" value="&lt;div style=&quot;&quot;&gt;&lt;span style=&quot;background-color: initial;&quot;&gt;&lt;b&gt;&amp;lt;&amp;lt;struct&amp;gt;&amp;gt; book&lt;/b&gt;&lt;/span&gt;&lt;/div&gt;&lt;div style=&quot;&quot;&gt;&lt;span style=&quot;background-color: initial;&quot;&gt;&lt;b&gt;char bookname[20];&lt;/b&gt;&lt;/span&gt;&lt;/div&gt;&lt;div style=&quot;&quot;&gt;&lt;span style=&quot;background-color: initial;&quot;&gt;&lt;b&gt;char&amp;nbsp;author[10];&lt;/b&gt;&lt;/span&gt;&lt;/div&gt;&lt;div style=&quot;&quot;&gt;&lt;span style=&quot;background-color: initial;&quot;&gt;&lt;b&gt;int ISBN;&lt;/b&gt;&lt;/span&gt;&lt;/div&gt;&lt;div style=&quot;&quot;&gt;&lt;span style=&quot;background-color: initial;&quot;&gt;&lt;b&gt;int&amp;nbsp;available = 1;&lt;/b&gt;&lt;/span&gt;&lt;/div&gt;" style="text;strokeColor=none;fillColor=none;align=center;verticalAlign=top;spacingLeft=4;spacingRight=4;overflow=hidden;rotatable=0;points=[[0,0.5],[1,0.5]];portConstraint=eastwest;whiteSpace=wrap;html=1;" vertex="1" parent="thi96tqDHeyaFZD7oe9c-2">
          <mxGeometry y="40" width="170" height="90" as="geometry" />
        </mxCell>
        <mxCell id="thi96tqDHeyaFZD7oe9c-5" value="&lt;span style=&quot;&quot;&gt;&lt;b&gt;&amp;lt;&amp;lt;struct&amp;gt;&amp;gt; member&lt;/b&gt;&lt;/span&gt;&lt;div style=&quot;&quot;&gt;&lt;b&gt;char name[10];&lt;/b&gt;&lt;/div&gt;&lt;div style=&quot;&quot;&gt;&lt;b&gt;int phoneNum;&lt;/b&gt;&lt;/div&gt;" style="text;strokeColor=none;fillColor=none;align=center;verticalAlign=top;spacingLeft=4;spacingRight=4;overflow=hidden;rotatable=0;points=[[0,0.5],[1,0.5]];portConstraint=eastwest;whiteSpace=wrap;html=1;" vertex="1" parent="thi96tqDHeyaFZD7oe9c-2">
          <mxGeometry y="130" width="170" height="60" as="geometry" />
        </mxCell>
        <mxCell id="thi96tqDHeyaFZD7oe9c-11" value="&lt;b&gt;&amp;lt;interface&amp;gt;&lt;/b&gt;&lt;div&gt;&lt;b&gt;library.h&lt;/b&gt;&lt;/div&gt;" style="swimlane;fontStyle=0;childLayout=stackLayout;horizontal=1;startSize=40;fillColor=none;horizontalStack=0;resizeParent=1;resizeParentMax=0;resizeLast=0;collapsible=1;marginBottom=0;whiteSpace=wrap;html=1;" vertex="1" parent="1">
          <mxGeometry x="229" y="40" width="370" height="460" as="geometry">
            <mxRectangle x="228.5" y="160" width="100" height="40" as="alternateBounds" />
          </mxGeometry>
        </mxCell>
        <mxCell id="thi96tqDHeyaFZD7oe9c-12" value="&lt;div style=&quot;&quot;&gt;&lt;span style=&quot;background-color: initial;&quot;&gt;&lt;b&gt;&amp;lt;&amp;lt;struct&amp;gt;&amp;gt; book&lt;/b&gt;&lt;/span&gt;&lt;/div&gt;&lt;div style=&quot;&quot;&gt;&lt;b&gt;&amp;lt;&amp;lt;struct&amp;gt;&amp;gt; member&lt;br&gt;&lt;/b&gt;&lt;/div&gt;&lt;div style=&quot;&quot;&gt;&lt;b&gt;struct book book_new()&lt;/b&gt;&lt;/div&gt;&lt;div style=&quot;&quot;&gt;&lt;b&gt;struct member member_new()&lt;/b&gt;&lt;/div&gt;&lt;div style=&quot;&quot;&gt;&lt;b&gt;&lt;br&gt;&lt;/b&gt;&lt;/div&gt;&lt;div style=&quot;&quot;&gt;&lt;b&gt;void book_ctor(struct *book, const char*, const char*, int)&lt;/b&gt;&lt;/div&gt;&lt;div style=&quot;&quot;&gt;&lt;b&gt;void book_dtor(&lt;span style=&quot;background-color: initial;&quot;&gt;struct *book&lt;/span&gt;&lt;span style=&quot;background-color: initial;&quot;&gt;)&lt;/span&gt;&lt;/b&gt;&lt;/div&gt;&lt;div style=&quot;&quot;&gt;&lt;span style=&quot;background-color: initial;&quot;&gt;&lt;b&gt;&lt;br&gt;&lt;/b&gt;&lt;/span&gt;&lt;/div&gt;&lt;div style=&quot;&quot;&gt;&lt;b&gt;void member_ctor(&lt;span style=&quot;background-color: initial;&quot;&gt;struct *member, const char*, int&lt;/span&gt;&lt;span style=&quot;background-color: initial;&quot;&gt;)&lt;/span&gt;&lt;/b&gt;&lt;/div&gt;&lt;div style=&quot;&quot;&gt;&lt;b&gt;void member_ctor(&lt;span style=&quot;background-color: initial;&quot;&gt;struct *member&lt;/span&gt;&lt;span style=&quot;background-color: initial;&quot;&gt;)&lt;/span&gt;&lt;/b&gt;&lt;/div&gt;&lt;div style=&quot;&quot;&gt;&lt;b&gt;&lt;br&gt;&lt;/b&gt;&lt;/div&gt;&lt;div style=&quot;&quot;&gt;&lt;b&gt;void book_get_name(&lt;span style=&quot;background-color: initial;&quot;&gt;struct *book, char*&lt;/span&gt;&lt;span style=&quot;background-color: initial;&quot;&gt;)&lt;/span&gt;&lt;/b&gt;&lt;/div&gt;&lt;div style=&quot;&quot;&gt;&lt;b&gt;void book_get_author(&lt;span style=&quot;background-color: initial;&quot;&gt;struct *book, char*&lt;/span&gt;&lt;span style=&quot;background-color: initial;&quot;&gt;)&lt;/span&gt;&lt;/b&gt;&lt;/div&gt;&lt;div style=&quot;&quot;&gt;&lt;b&gt;void book_get_ISBN(&lt;span style=&quot;background-color: initial;&quot;&gt;struct *book, int&lt;/span&gt;&lt;span style=&quot;background-color: initial;&quot;&gt;)&lt;/span&gt;&lt;/b&gt;&lt;/div&gt;&lt;div style=&quot;&quot;&gt;&lt;b&gt;void book_available(&lt;span style=&quot;background-color: initial;&quot;&gt;struct *book, int&lt;/span&gt;&lt;span style=&quot;background-color: initial;&quot;&gt;)&lt;/span&gt;&lt;/b&gt;&lt;/div&gt;&lt;div style=&quot;&quot;&gt;&lt;span style=&quot;background-color: initial;&quot;&gt;&lt;b&gt;&lt;br&gt;&lt;/b&gt;&lt;/span&gt;&lt;/div&gt;&lt;div style=&quot;&quot;&gt;&lt;div&gt;&lt;b&gt;void member_get_name(&lt;span style=&quot;background-color: initial;&quot;&gt;struct *member, char*&lt;/span&gt;&lt;span style=&quot;background-color: initial;&quot;&gt;)&lt;/span&gt;&lt;/b&gt;&lt;/div&gt;&lt;div&gt;&lt;b&gt;void member_get_phoneNum(&lt;span style=&quot;background-color: initial;&quot;&gt;struct *member, int&lt;/span&gt;&lt;span style=&quot;background-color: initial;&quot;&gt;)&lt;/span&gt;&lt;/b&gt;&lt;/div&gt;&lt;div&gt;&lt;span style=&quot;background-color: initial;&quot;&gt;&lt;b&gt;&lt;br&gt;&lt;/b&gt;&lt;/span&gt;&lt;/div&gt;&lt;div&gt;&lt;b&gt;&lt;span style=&quot;background-color: initial;&quot;&gt;void book_info(struct *book)&amp;nbsp;&lt;/span&gt;&lt;br&gt;&lt;/b&gt;&lt;/div&gt;&lt;div&gt;&lt;div&gt;&lt;b&gt;void book_regist(struct *book, char*, char*, int)&lt;/b&gt;&lt;/div&gt;&lt;div&gt;&lt;b&gt;&lt;br&gt;&lt;/b&gt;&lt;div&gt;&lt;b&gt;void member_regist(struct *member, char*, int)&lt;br&gt;&lt;/b&gt;&lt;div&gt;&lt;b&gt;void member_info(struct * member)&lt;/b&gt;&lt;/div&gt;&lt;div&gt;&lt;span style=&quot;background-color: initial;&quot;&gt;&lt;b&gt;&lt;br&gt;&lt;/b&gt;&lt;/span&gt;&lt;/div&gt;&lt;div&gt;&lt;span style=&quot;background-color: initial;&quot;&gt;&lt;b&gt;void book_borrow()&lt;/b&gt;&lt;/span&gt;&lt;/div&gt;&lt;div&gt;&lt;b&gt;void book_return()&lt;/b&gt;&lt;/div&gt;&lt;/div&gt;&lt;/div&gt;&lt;/div&gt;&lt;/div&gt;" style="text;strokeColor=none;fillColor=none;align=center;verticalAlign=top;spacingLeft=4;spacingRight=4;overflow=hidden;rotatable=0;points=[[0,0.5],[1,0.5]];portConstraint=eastwest;whiteSpace=wrap;html=1;" vertex="1" parent="thi96tqDHeyaFZD7oe9c-11">
          <mxGeometry y="40" width="370" height="420" as="geometry" />
        </mxCell>
        <mxCell id="ic9AHcSJmcqHUEUMWR7q-4" value="&lt;p style=&quot;margin:0px;margin-top:4px;text-align:center;&quot;&gt;&lt;b&gt;&amp;lt;class&amp;gt;&lt;/b&gt;&lt;/p&gt;&lt;p style=&quot;margin:0px;margin-top:4px;text-align:center;&quot;&gt;&lt;b&gt;book.c&lt;/b&gt;&lt;/p&gt;&lt;hr size=&quot;1&quot; style=&quot;border-style:solid;&quot;&gt;&lt;div style=&quot;height:2px;&quot;&gt;&lt;/div&gt;" style="verticalAlign=top;align=left;overflow=fill;html=1;whiteSpace=wrap;" vertex="1" parent="1">
          <mxGeometry x="1021" y="310" width="240" height="190" as="geometry" />
        </mxCell>
        <mxCell id="ic9AHcSJmcqHUEUMWR7q-5" value="&lt;p style=&quot;margin:0px;margin-top:4px;text-align:center;&quot;&gt;&lt;b&gt;&amp;lt;class&amp;gt;&lt;/b&gt;&lt;/p&gt;&lt;p style=&quot;margin:0px;margin-top:4px;text-align:center;&quot;&gt;&lt;b&gt;member.c&lt;/b&gt;&lt;/p&gt;&lt;hr size=&quot;1&quot; style=&quot;border-style:solid;&quot;&gt;&lt;div style=&quot;height:2px;&quot;&gt;&lt;/div&gt;" style="verticalAlign=top;align=left;overflow=fill;html=1;whiteSpace=wrap;" vertex="1" parent="1">
          <mxGeometry x="1021" y="40" width="240" height="170" as="geometry" />
        </mxCell>
        <mxCell id="ic9AHcSJmcqHUEUMWR7q-6" value="&lt;p style=&quot;margin:0px;margin-top:4px;text-align:center;&quot;&gt;&lt;b&gt;&amp;lt;class&amp;gt;&lt;/b&gt;&lt;/p&gt;&lt;p style=&quot;margin:0px;margin-top:4px;text-align:center;&quot;&gt;&lt;b&gt;library.c&lt;/b&gt;&lt;/p&gt;&lt;hr size=&quot;1&quot; style=&quot;border-style:solid;&quot;&gt;&lt;div style=&quot;height:2px;&quot;&gt;&lt;/div&gt;" style="verticalAlign=top;align=left;overflow=fill;html=1;whiteSpace=wrap;" vertex="1" parent="1">
          <mxGeometry x="670" y="150" width="240" height="220" as="geometry" />
        </mxCell>
        <mxCell id="ic9AHcSJmcqHUEUMWR7q-7" value="&lt;font style=&quot;font-size: 16px;&quot;&gt;&lt;b&gt;library.h&lt;/b&gt;&lt;/font&gt;" style="html=1;whiteSpace=wrap;" vertex="1" parent="1">
          <mxGeometry x="40" y="1140" width="110" height="50" as="geometry" />
        </mxCell>
        <mxCell id="ic9AHcSJmcqHUEUMWR7q-14" value="&lt;font style=&quot;font-size: 16px;&quot;&gt;&lt;b&gt;library_p.h&lt;/b&gt;&lt;/font&gt;" style="html=1;whiteSpace=wrap;" vertex="1" parent="1">
          <mxGeometry x="40" y="1210" width="110" height="50" as="geometry" />
        </mxCell>
        <mxCell id="ic9AHcSJmcqHUEUMWR7q-16" value="&lt;font style=&quot;font-size: 16px;&quot;&gt;&lt;b&gt;library.c&lt;/b&gt;&lt;/font&gt;" style="html=1;whiteSpace=wrap;" vertex="1" parent="1">
          <mxGeometry x="40" y="840" width="110" height="50" as="geometry" />
        </mxCell>
        <mxCell id="ic9AHcSJmcqHUEUMWR7q-17" value="&lt;font style=&quot;font-size: 16px;&quot;&gt;&lt;b&gt;book.c&lt;/b&gt;&lt;/font&gt;" style="html=1;whiteSpace=wrap;" vertex="1" parent="1">
          <mxGeometry x="40" y="740" width="110" height="50" as="geometry" />
        </mxCell>
        <mxCell id="ic9AHcSJmcqHUEUMWR7q-18" value="&lt;font style=&quot;font-size: 16px;&quot;&gt;&lt;b&gt;member.c&lt;/b&gt;&lt;/font&gt;" style="html=1;whiteSpace=wrap;" vertex="1" parent="1">
          <mxGeometry x="40" y="950" width="110" height="50" as="geometry" />
        </mxCell>
        <mxCell id="ic9AHcSJmcqHUEUMWR7q-19" value="&lt;font style=&quot;font-size: 16px;&quot;&gt;&lt;b&gt;main.c&lt;/b&gt;&lt;/font&gt;" style="html=1;whiteSpace=wrap;" vertex="1" parent="1">
          <mxGeometry x="630" y="840" width="110" height="50" as="geometry" />
        </mxCell>
        <mxCell id="ic9AHcSJmcqHUEUMWR7q-20" value="&lt;font style=&quot;font-size: 16px;&quot;&gt;&lt;b&gt;book.o&lt;/b&gt;&lt;/font&gt;" style="html=1;whiteSpace=wrap;" vertex="1" parent="1">
          <mxGeometry x="329" y="740" width="110" height="50" as="geometry" />
        </mxCell>
        <mxCell id="ic9AHcSJmcqHUEUMWR7q-21" value="&lt;font style=&quot;font-size: 16px;&quot;&gt;&lt;b&gt;library.o&lt;/b&gt;&lt;/font&gt;" style="html=1;whiteSpace=wrap;" vertex="1" parent="1">
          <mxGeometry x="329" y="840" width="110" height="50" as="geometry" />
        </mxCell>
        <mxCell id="ic9AHcSJmcqHUEUMWR7q-22" value="&lt;font style=&quot;font-size: 16px;&quot;&gt;&lt;b&gt;member.o&lt;/b&gt;&lt;/font&gt;" style="html=1;whiteSpace=wrap;" vertex="1" parent="1">
          <mxGeometry x="329" y="950" width="110" height="50" as="geometry" />
        </mxCell>
        <mxCell id="ic9AHcSJmcqHUEUMWR7q-23" value="" style="endArrow=classic;html=1;rounded=0;exitX=0;exitY=0.5;exitDx=0;exitDy=0;entryX=1;entryY=0.5;entryDx=0;entryDy=0;" edge="1" parent="1" source="ic9AHcSJmcqHUEUMWR7q-20" target="ic9AHcSJmcqHUEUMWR7q-17">
          <mxGeometry width="50" height="50" relative="1" as="geometry">
            <mxPoint x="220" y="990" as="sourcePoint" />
            <mxPoint x="270" y="940" as="targetPoint" />
          </mxGeometry>
        </mxCell>
        <mxCell id="ic9AHcSJmcqHUEUMWR7q-26" value="" style="endArrow=classic;html=1;rounded=0;exitX=0;exitY=0.5;exitDx=0;exitDy=0;entryX=1;entryY=0.5;entryDx=0;entryDy=0;" edge="1" parent="1" source="ic9AHcSJmcqHUEUMWR7q-21" target="ic9AHcSJmcqHUEUMWR7q-16">
          <mxGeometry width="50" height="50" relative="1" as="geometry">
            <mxPoint x="220" y="990" as="sourcePoint" />
            <mxPoint x="270" y="940" as="targetPoint" />
          </mxGeometry>
        </mxCell>
        <mxCell id="ic9AHcSJmcqHUEUMWR7q-27" value="" style="endArrow=classic;html=1;rounded=0;exitX=0;exitY=0.5;exitDx=0;exitDy=0;entryX=1;entryY=0.5;entryDx=0;entryDy=0;" edge="1" parent="1" source="ic9AHcSJmcqHUEUMWR7q-22" target="ic9AHcSJmcqHUEUMWR7q-18">
          <mxGeometry width="50" height="50" relative="1" as="geometry">
            <mxPoint x="220" y="990" as="sourcePoint" />
            <mxPoint x="270" y="940" as="targetPoint" />
          </mxGeometry>
        </mxCell>
        <mxCell id="dnsnWMHG0CZqc9EXemri-6" value="" style="endArrow=classic;html=1;rounded=0;exitX=0;exitY=0.5;exitDx=0;exitDy=0;entryX=1;entryY=0.5;entryDx=0;entryDy=0;" edge="1" parent="1" source="ic9AHcSJmcqHUEUMWR7q-19" target="ic9AHcSJmcqHUEUMWR7q-21">
          <mxGeometry width="50" height="50" relative="1" as="geometry">
            <mxPoint x="480" y="910" as="sourcePoint" />
            <mxPoint x="530" y="860" as="targetPoint" />
          </mxGeometry>
        </mxCell>
        <mxCell id="dnsnWMHG0CZqc9EXemri-7" value="" style="endArrow=classic;html=1;rounded=0;exitX=0;exitY=0.75;exitDx=0;exitDy=0;entryX=0.5;entryY=0;entryDx=0;entryDy=0;" edge="1" parent="1" source="ic9AHcSJmcqHUEUMWR7q-20" target="ic9AHcSJmcqHUEUMWR7q-7">
          <mxGeometry width="50" height="50" relative="1" as="geometry">
            <mxPoint x="300" y="990" as="sourcePoint" />
            <mxPoint x="70" y="1090" as="targetPoint" />
          </mxGeometry>
        </mxCell>
        <mxCell id="dnsnWMHG0CZqc9EXemri-8" value="" style="endArrow=classic;html=1;rounded=0;exitX=0;exitY=0.75;exitDx=0;exitDy=0;entryX=1;entryY=0.5;entryDx=0;entryDy=0;" edge="1" parent="1" source="ic9AHcSJmcqHUEUMWR7q-20" target="ic9AHcSJmcqHUEUMWR7q-14">
          <mxGeometry width="50" height="50" relative="1" as="geometry">
            <mxPoint x="260" y="1090" as="sourcePoint" />
            <mxPoint x="310" y="1040" as="targetPoint" />
          </mxGeometry>
        </mxCell>
        <mxCell id="dnsnWMHG0CZqc9EXemri-9" value="" style="endArrow=classic;html=1;rounded=0;exitX=0;exitY=1;exitDx=0;exitDy=0;entryX=0.5;entryY=0;entryDx=0;entryDy=0;" edge="1" parent="1" source="ic9AHcSJmcqHUEUMWR7q-21" target="ic9AHcSJmcqHUEUMWR7q-7">
          <mxGeometry width="50" height="50" relative="1" as="geometry">
            <mxPoint x="220" y="1060" as="sourcePoint" />
            <mxPoint x="270" y="1010" as="targetPoint" />
          </mxGeometry>
        </mxCell>
        <mxCell id="dnsnWMHG0CZqc9EXemri-10" value="" style="endArrow=classic;html=1;rounded=0;exitX=0;exitY=1;exitDx=0;exitDy=0;entryX=1;entryY=0.5;entryDx=0;entryDy=0;" edge="1" parent="1" source="ic9AHcSJmcqHUEUMWR7q-21" target="ic9AHcSJmcqHUEUMWR7q-14">
          <mxGeometry width="50" height="50" relative="1" as="geometry">
            <mxPoint x="220" y="1060" as="sourcePoint" />
            <mxPoint x="170" y="1150" as="targetPoint" />
          </mxGeometry>
        </mxCell>
        <mxCell id="dnsnWMHG0CZqc9EXemri-12" value="" style="endArrow=classic;html=1;rounded=0;exitX=0.25;exitY=1;exitDx=0;exitDy=0;entryX=0.5;entryY=0;entryDx=0;entryDy=0;" edge="1" parent="1" source="ic9AHcSJmcqHUEUMWR7q-22" target="ic9AHcSJmcqHUEUMWR7q-7">
          <mxGeometry width="50" height="50" relative="1" as="geometry">
            <mxPoint x="290" y="1130" as="sourcePoint" />
            <mxPoint x="340" y="1080" as="targetPoint" />
          </mxGeometry>
        </mxCell>
        <mxCell id="dnsnWMHG0CZqc9EXemri-13" value="" style="endArrow=classic;html=1;rounded=0;exitX=0.25;exitY=1;exitDx=0;exitDy=0;entryX=1;entryY=0.5;entryDx=0;entryDy=0;" edge="1" parent="1" source="ic9AHcSJmcqHUEUMWR7q-22" target="ic9AHcSJmcqHUEUMWR7q-14">
          <mxGeometry width="50" height="50" relative="1" as="geometry">
            <mxPoint x="290" y="1130" as="sourcePoint" />
            <mxPoint x="340" y="1080" as="targetPoint" />
          </mxGeometry>
        </mxCell>
        <mxCell id="dnsnWMHG0CZqc9EXemri-14" value="" style="endArrow=classic;html=1;rounded=0;exitX=0;exitY=0.5;exitDx=0;exitDy=0;entryX=1;entryY=0.5;entryDx=0;entryDy=0;" edge="1" parent="1" source="ic9AHcSJmcqHUEUMWR7q-19" target="ic9AHcSJmcqHUEUMWR7q-20">
          <mxGeometry width="50" height="50" relative="1" as="geometry">
            <mxPoint x="380" y="960" as="sourcePoint" />
            <mxPoint x="430" y="910" as="targetPoint" />
          </mxGeometry>
        </mxCell>
        <mxCell id="dnsnWMHG0CZqc9EXemri-15" value="" style="endArrow=classic;html=1;rounded=0;exitX=0;exitY=0.5;exitDx=0;exitDy=0;entryX=1;entryY=0.5;entryDx=0;entryDy=0;" edge="1" parent="1" source="ic9AHcSJmcqHUEUMWR7q-19" target="ic9AHcSJmcqHUEUMWR7q-22">
          <mxGeometry width="50" height="50" relative="1" as="geometry">
            <mxPoint x="380" y="960" as="sourcePoint" />
            <mxPoint x="430" y="910" as="targetPoint" />
          </mxGeometry>
        </mxCell>
        <mxCell id="dnsnWMHG0CZqc9EXemri-16" value="" style="endArrow=classic;html=1;rounded=0;exitX=0;exitY=0.5;exitDx=0;exitDy=0;entryX=0.996;entryY=0.282;entryDx=0;entryDy=0;entryPerimeter=0;" edge="1" parent="1" source="ic9AHcSJmcqHUEUMWR7q-5" target="ic9AHcSJmcqHUEUMWR7q-6">
          <mxGeometry width="50" height="50" relative="1" as="geometry">
            <mxPoint x="650" y="360" as="sourcePoint" />
            <mxPoint x="700" y="310" as="targetPoint" />
          </mxGeometry>
        </mxCell>
        <mxCell id="dnsnWMHG0CZqc9EXemri-17" value="" style="endArrow=classic;html=1;rounded=0;exitX=0;exitY=0.75;exitDx=0;exitDy=0;entryX=1;entryY=0.75;entryDx=0;entryDy=0;" edge="1" parent="1" source="ic9AHcSJmcqHUEUMWR7q-4" target="ic9AHcSJmcqHUEUMWR7q-6">
          <mxGeometry width="50" height="50" relative="1" as="geometry">
            <mxPoint x="650" y="360" as="sourcePoint" />
            <mxPoint x="700" y="310" as="targetPoint" />
          </mxGeometry>
        </mxCell>
        <mxCell id="dnsnWMHG0CZqc9EXemri-18" value="&lt;font color=&quot;#ff9999&quot; style=&quot;font-size: 40px;&quot;&gt;&lt;b&gt;MAKE&lt;/b&gt;&lt;/font&gt;" style="rounded=0;whiteSpace=wrap;html=1;" vertex="1" parent="1">
          <mxGeometry x="490" y="1010" width="170" height="60" as="geometry" />
        </mxCell>
      </root>
    </mxGraphModel>
  </diagram>
</mxfile>
